<?xml version="1.0" standalone="no"?>
<!DOCTYPE svg PUBLIC "-//W3C//DTD SVG 20010904//EN"
 "http://www.w3.org/TR/2001/REC-SVG-20010904/DTD/svg10.dtd">
<svg version="1.0" xmlns="http://www.w3.org/2000/svg"
 width="73.000000pt" height="105.000000pt" viewBox="0 0 73.000000 105.000000"
 preserveAspectRatio="xMidYMid meet">
<metadata>
Created by potrace 1.10, written by Peter Selinger 2001-2011
</metadata>
<g transform="translate(0.000000,105.000000) scale(0.100000,-0.100000)"
fill="#000000" stroke="none">
<path d="M279 1013 c-13 -97 -15 -195 -6 -283 8 -70 43 -208 57 -225 5 -6 9
-65 9 -130 0 -144 0 -155 -10 -150 -12 8 -81 -25 -77 -36 2 -6 7 -10 11 -9 4
0 15 -6 23 -15 21 -21 176 -22 197 0 8 8 17 11 21 8 3 -4 6 1 6 11 0 15 -56
45 -70 37 -11 -7 -19 43 -19 135 -1 78 4 114 20 160 41 118 59 231 55 360 -2
67 -6 126 -10 133 -8 12 -205 16 -207 4z m189 -143 c5 -183 -22 -293 -73 -306
-29 -7 -50 7 -70 46 -20 38 -36 210 -29 301 l7 80 81 -3 81 -3 3 -115z m-65
-342 c2 -7 0 -26 -5 -43 -5 -16 -8 -70 -7 -120 1 -53 -2 -90 -8 -92 -10 -4
-25 243 -16 260 7 12 31 8 36 -5z"/>
</g>
</svg>
