<?xml version="1.0" standalone="no"?>
<!DOCTYPE svg PUBLIC "-//W3C//DTD SVG 20010904//EN"
 "http://www.w3.org/TR/2001/REC-SVG-20010904/DTD/svg10.dtd">
<svg version="1.0" xmlns="http://www.w3.org/2000/svg"
 width="57.000000pt" height="96.000000pt" viewBox="0 0 57.000000 96.000000"
 preserveAspectRatio="xMidYMid meet">
<metadata>
Created by potrace 1.10, written by Peter Selinger 2001-2011
</metadata>
<g transform="translate(0.000000,96.000000) scale(0.100000,-0.100000)"
fill="#000000" stroke="none">
<path d="M118 934 c-4 -3 1 -22 10 -42 13 -29 18 -79 22 -222 5 -177 6 -187
30 -220 20 -28 25 -50 30 -125 7 -101 -5 -131 -61 -161 -16 -8 -27 -19 -24
-23 3 -5 -4 -7 -15 -4 -14 4 -20 0 -20 -11 0 -15 18 -16 172 -14 126 2 172 6
176 16 2 6 -2 12 -10 12 -7 0 -30 11 -49 25 -20 13 -39 22 -43 20 -3 -3 -4 -2
-1 2 3 3 -2 17 -11 31 -12 19 -15 41 -12 96 5 69 9 85 49 156 17 31 19 56 19
205 0 145 3 176 19 212 11 23 17 44 13 47 -7 8 -287 8 -294 0z m262 -29 c0 -4
-6 -18 -14 -33 -17 -34 -25 -88 -31 -217 -7 -177 -23 -211 -85 -190 -42 14
-43 20 -60 229 -6 88 -17 161 -26 177 -8 16 -14 30 -14 34 0 3 52 5 115 5 63
0 115 -2 115 -5z m-90 -595 c0 -68 -1 -70 -25 -70 -24 0 -25 2 -25 70 0 68 1
70 25 70 24 0 25 -2 25 -70z"/>
</g>
</svg>
