<?xml version="1.0" standalone="no"?>
<!DOCTYPE svg PUBLIC "-//W3C//DTD SVG 20010904//EN"
 "http://www.w3.org/TR/2001/REC-SVG-20010904/DTD/svg10.dtd">
<svg version="1.0" xmlns="http://www.w3.org/2000/svg"
 width="69.000000pt" height="94.000000pt" viewBox="0 0 69.000000 94.000000"
 preserveAspectRatio="xMidYMid meet">
<metadata>
Created by potrace 1.10, written by Peter Selinger 2001-2011
</metadata>
<g transform="translate(0.000000,94.000000) scale(0.100000,-0.100000)"
fill="#000000" stroke="none">
<path d="M175 902 c-40 -7 -40 -7 -39 -52 1 -130 27 -756 31 -763 3 -5 12 -6
20 -3 8 3 11 2 8 -3 -9 -15 76 -23 199 -20 89 3 119 8 131 20 14 14 19 77 33
412 8 218 12 400 9 404 -10 9 -341 13 -392 5z m366 -117 c-1 -49 -11 -173 -22
-275 -11 -102 -22 -216 -25 -255 l-7 -70 -132 0 -133 0 -6 35 c-3 19 -6 48 -6
63 0 16 -3 26 -7 24 -5 -3 -9 36 -11 87 -1 50 -6 126 -12 168 -5 43 -12 132
-16 198 l-7 120 194 -2 193 -3 -3 -90z m-41 -635 c0 -5 -66 -10 -155 -12 -146
-3 -165 -1 -148 15 10 11 303 8 303 -3z m-22 -50 c-3 -12 -25 -15 -118 -16
-103 -2 -140 5 -140 25 0 3 59 6 130 6 111 0 130 -2 128 -15z"/>
</g>
</svg>
