<?xml version="1.0" standalone="no"?>
<!DOCTYPE svg PUBLIC "-//W3C//DTD SVG 20010904//EN"
 "http://www.w3.org/TR/2001/REC-SVG-20010904/DTD/svg10.dtd">
<svg version="1.0" xmlns="http://www.w3.org/2000/svg"
 width="82.000000pt" height="102.000000pt" viewBox="0 0 82.000000 102.000000"
 preserveAspectRatio="xMidYMid meet">
<metadata>
Created by potrace 1.10, written by Peter Selinger 2001-2011
</metadata>
<g transform="translate(0.000000,102.000000) scale(0.100000,-0.100000)"
fill="#000000" stroke="none">
<path d="M191 933 l-24 -5 6 -136 c4 -76 9 -229 13 -342 5 -183 8 -207 25
-226 13 -14 19 -35 19 -65 0 -65 21 -74 174 -74 156 0 169 7 164 80 -1 29 0
51 3 49 4 -2 12 3 19 11 11 13 16 86 35 556 l6 146 -38 7 c-42 6 -364 6 -402
-1z m405 -26 c3 -3 2 -95 -3 -204 -4 -109 -9 -179 -11 -155 -6 79 -22 43 -19
-43 2 -58 -1 -86 -9 -89 -13 -5 -24 44 -24 112 0 38 -8 51 -22 37 -3 -3 -2
-22 1 -43 8 -44 -11 -123 -24 -102 -5 7 -10 39 -11 69 -2 38 -7 56 -16 56 -7
0 -12 -6 -10 -13 7 -38 -5 -122 -18 -122 -10 0 -21 54 -20 98 1 24 -3 33 -12
29 -7 -2 -12 -12 -10 -22 2 -9 -2 -39 -8 -66 -17 -69 -36 -46 -32 37 3 53 1
64 -12 64 -13 0 -16 -11 -16 -54 0 -30 -3 -61 -6 -70 -13 -34 -24 -1 -24 70 0
56 -3 75 -12 72 -9 -3 -14 -31 -16 -82 -2 -51 -7 -76 -14 -74 -7 3 -10 35 -9
91 1 56 -2 87 -8 87 -6 0 -12 -19 -13 -42 -1 -57 -15 119 -19 252 -3 101 -2
105 20 110 29 7 370 4 377 -3z m-343 -529 c4 -10 8 -9 16 2 10 13 11 13 12 0
0 -8 2 -34 4 -57 3 -47 -6 -61 -25 -38 -9 11 -9 19 -2 28 8 9 5 19 -8 37 -11
14 -20 28 -20 33 0 12 18 8 23 -5z m60 0 c3 -10 8 -9 22 2 14 11 19 12 22 3 3
-7 11 -13 18 -13 7 0 16 6 18 13 4 8 8 9 14 1 14 -19 43 -25 43 -9 0 8 5 15
10 15 6 0 10 -4 10 -10 0 -5 7 -10 15 -10 8 0 15 5 15 10 0 6 9 10 21 10 11 0
18 -4 15 -9 -4 -5 0 -11 6 -14 10 -3 10 -9 0 -27 -12 -20 -12 -21 7 -15 13 4
21 2 21 -5 0 -6 -4 -8 -10 -5 -5 3 -10 -3 -10 -14 0 -10 6 -21 13 -24 6 -2 8
-8 4 -13 -5 -5 -19 3 -32 18 -18 21 -25 24 -29 13 -3 -9 1 -15 9 -15 18 0 20
-16 3 -24 -7 -3 -2 -3 11 0 17 4 22 2 19 -7 -3 -8 -14 -13 -24 -11 -15 2 -16
1 -5 -6 7 -6 10 -15 7 -21 -10 -15 -26 -14 -26 2 0 8 -7 14 -15 14 -8 0 -15
-6 -15 -14 0 -7 -4 -13 -10 -13 -17 0 -11 25 12 50 15 16 18 25 10 28 -7 2
-12 10 -12 18 0 8 -4 14 -10 14 -5 0 -10 7 -10 15 0 17 -26 10 -50 -14 -19
-19 -19 -20 24 -46 36 -22 38 -35 4 -35 -10 0 -18 6 -18 14 0 20 -35 30 -57
16 -15 -8 -13 -9 9 -4 20 4 29 1 37 -14 16 -29 14 -52 -2 -31 -7 8 -19 18 -28
21 -13 5 -16 2 -12 -13 3 -10 0 -19 -6 -19 -6 0 -11 6 -11 13 0 8 -7 14 -15
14 -8 0 -15 -6 -15 -14 0 -7 -4 -13 -10 -13 -12 0 -13 20 0 40 6 9 5 17 -3 23
-9 7 -9 10 0 13 9 4 9 11 1 30 -9 20 -9 27 1 33 9 6 10 11 2 15 -13 9 -15 36
-2 36 5 0 11 -6 14 -12z m134 -75 c4 -10 11 -21 17 -25 6 -4 7 -11 2 -15 -5
-4 -11 -2 -13 5 -3 6 -11 12 -18 12 -17 0 -28 17 -20 30 10 15 25 12 32 -7z
m-197 -33 c0 -5 9 -10 20 -10 11 0 20 -7 20 -15 0 -21 -16 -19 -40 5 -22 22
-25 30 -10 30 6 0 10 -4 10 -10z m275 -118 c7 -18 -11 -32 -42 -32 -13 0 -23
-3 -23 -8 0 -14 -149 2 -183 20 -18 9 -18 10 0 24 27 21 240 17 248 -4z"/>
</g>
</svg>
