<?xml version="1.0" standalone="no"?>
<!DOCTYPE svg PUBLIC "-//W3C//DTD SVG 20010904//EN"
 "http://www.w3.org/TR/2001/REC-SVG-20010904/DTD/svg10.dtd">
<svg version="1.0" xmlns="http://www.w3.org/2000/svg"
 width="83.000000pt" height="109.000000pt" viewBox="0 0 83.000000 109.000000"
 preserveAspectRatio="xMidYMid meet">
<metadata>
Created by potrace 1.10, written by Peter Selinger 2001-2011
</metadata>
<g transform="translate(0.000000,109.000000) scale(0.100000,-0.100000)"
fill="#000000" stroke="none">
<path d="M160 728 l0 -269 50 -60 c28 -33 50 -64 50 -69 0 -25 -23 -62 -61
-99 -41 -39 -42 -42 -26 -59 15 -14 41 -17 170 -20 90 -2 163 1 180 7 34 13
36 47 3 62 -26 12 -66 76 -66 106 0 25 71 107 177 203 45 41 79 79 76 85 -4 5
-2 7 2 2 5 -4 17 0 27 10 27 25 26 185 -2 231 -36 58 -125 78 -170 37 -16 -14
-17 -11 -13 45 l4 60 -200 -2 -201 -1 0 -269z m353 30 c-6 -117 -12 -230 -12
-251 l-1 -38 -41 3 c-27 2 -44 -1 -46 -9 -3 -9 7 -13 31 -13 38 0 44 -8 24
-28 -8 -8 -47 -12 -113 -12 -137 1 -137 1 -146 210 -4 85 -10 199 -13 253 l-5
97 167 0 167 0 -12 -212z m175 116 c37 -25 52 -67 52 -143 l0 -69 -92 -86
c-70 -64 -94 -81 -97 -68 -2 11 25 43 79 93 l82 75 -4 73 c-3 62 -7 76 -27 92
-31 25 -69 24 -98 -3 -26 -24 -35 -22 -27 9 11 40 90 57 132 27z m-10 -125 l3
-64 -64 -63 -63 -62 2 110 c2 117 11 141 59 160 39 16 60 -11 63 -81z m-250
-366 c-3 -5 -10 -23 -17 -40 -11 -29 -17 -33 -51 -33 -34 0 -40 4 -58 40 l-19
40 74 0 c41 0 73 -3 71 -7z m5 -143 c-3 -13 0 -20 8 -20 9 -1 8 -4 -4 -11 -30
-17 -34 -7 -28 65 1 5 7 3 15 -3 8 -7 12 -21 9 -31z m-113 21 c0 -4 11 -6 25
-3 20 3 25 0 25 -16 0 -11 7 -28 16 -37 9 -9 13 -19 10 -23 -4 -3 -10 -2 -14
3 -14 19 -51 35 -57 24 -4 -5 -16 -7 -28 -3 -19 6 -20 5 -8 -10 17 -21 -4 -22
-25 -1 -12 12 -12 18 -2 35 7 11 16 20 21 20 4 0 5 5 2 10 -3 6 3 10 14 10 12
0 21 -4 21 -9z"/>
</g>
</svg>
