<?xml version="1.0" standalone="no"?>
<!DOCTYPE svg PUBLIC "-//W3C//DTD SVG 20010904//EN"
 "http://www.w3.org/TR/2001/REC-SVG-20010904/DTD/svg10.dtd">
<svg version="1.0" xmlns="http://www.w3.org/2000/svg"
 width="106.000000pt" height="105.000000pt" viewBox="0 0 106.000000 105.000000"
 preserveAspectRatio="xMidYMid meet">
<metadata>
Created by potrace 1.10, written by Peter Selinger 2001-2011
</metadata>
<g transform="translate(0.000000,105.000000) scale(0.100000,-0.100000)"
fill="#000000" stroke="none">
<path d="M224 951 c-2 -2 -4 -26 -4 -53 0 -93 62 -168 189 -232 38 -20 72 -40
76 -46 3 -6 10 -8 14 -6 9 6 12 -307 3 -364 -7 -43 -10 -46 -84 -90 -43 -24
-78 -48 -78 -52 0 -5 97 -8 215 -8 118 0 215 4 215 9 0 5 -33 28 -74 51 -49
28 -76 50 -80 65 -3 12 -6 98 -7 190 -1 199 0 199 107 256 92 49 147 103 167
164 18 50 23 115 10 115 -171 3 -666 4 -669 1z m628 -21 c33 0 21 -87 -18
-131 -8 -9 -11 -19 -7 -23 5 -4 3 -6 -2 -5 -19 5 -155 -43 -155 -54 0 -8 -3
-8 -8 -2 -4 6 -53 10 -110 10 -61 0 -102 -4 -102 -10 0 -5 -4 -5 -8 2 -7 12
-115 54 -144 56 -9 1 -16 4 -15 7 1 3 -6 19 -16 36 -9 18 -19 50 -23 72 -6 37
-4 41 17 44 20 2 172 2 591 -2z m-279 -330 c9 0 12 -48 10 -177 l-2 -176 -25
-2 -26 -1 0 174 c0 124 4 177 13 186 6 8 14 10 15 5 2 -5 9 -9 15 -9z m28
-401 c8 -16 8 -20 -1 -14 -6 4 -27 7 -46 7 -22 0 -34 5 -34 14 0 24 67 18 81
-7z m57 -49 c23 -10 42 -21 42 -25 0 -3 -66 -5 -147 -5 -138 0 -146 1 -125 16
55 38 162 45 230 14z"/>
</g>
</svg>
