<?xml version="1.0" standalone="no"?>
<!DOCTYPE svg PUBLIC "-//W3C//DTD SVG 20010904//EN"
 "http://www.w3.org/TR/2001/REC-SVG-20010904/DTD/svg10.dtd">
<svg version="1.0" xmlns="http://www.w3.org/2000/svg"
 width="84.000000pt" height="100.000000pt" viewBox="0 0 84.000000 100.000000"
 preserveAspectRatio="xMidYMid meet">
<metadata>
Created by potrace 1.10, written by Peter Selinger 2001-2011
</metadata>
<g transform="translate(0.000000,100.000000) scale(0.100000,-0.100000)"
fill="#000000" stroke="none">
<path d="M100 933 c1 -52 34 -108 76 -127 22 -9 46 -21 54 -25 8 -4 22 -37 31
-72 18 -76 27 -92 74 -148 l35 -43 -1 -121 c-1 -67 -4 -133 -8 -147 -4 -19
-25 -34 -81 -62 -41 -20 -76 -42 -78 -48 -3 -7 65 -10 207 -10 116 0 211 4
211 8 0 5 -35 26 -77 48 -73 37 -78 42 -86 79 -4 22 -7 90 -5 152 3 111 3 112
35 145 41 43 77 120 60 130 -9 6 -9 8 1 8 6 0 12 8 12 18 0 35 26 65 69 81 55
20 82 55 88 115 l6 46 -312 0 -311 0 0 -27z m590 -13 c0 -42 -28 -78 -76 -96
-50 -19 -83 -56 -109 -122 -19 -46 -66 -92 -95 -92 -29 0 -76 46 -95 92 -26
66 -59 103 -109 122 -48 18 -76 54 -76 96 0 20 4 20 280 20 276 0 280 0 280
-20z m-277 -392 c13 -11 16 -38 19 -153 l3 -140 -25 0 -25 0 2 115 c1 63 4
129 7 147 3 19 0 34 -7 37 -7 2 -8 5 -1 5 5 1 18 -5 27 -11z"/>
<path d="M270 825 c0 -13 22 -15 140 -15 118 0 140 2 140 15 0 13 -22 15 -140
15 -118 0 -140 -2 -140 -15z"/>
</g>
</svg>
