<?xml version="1.0" standalone="no"?>
<!DOCTYPE svg PUBLIC "-//W3C//DTD SVG 20010904//EN"
 "http://www.w3.org/TR/2001/REC-SVG-20010904/DTD/svg10.dtd">
<svg version="1.0" xmlns="http://www.w3.org/2000/svg"
 width="89.000000pt" height="108.000000pt" viewBox="0 0 89.000000 108.000000"
 preserveAspectRatio="xMidYMid meet">
<metadata>
Created by potrace 1.10, written by Peter Selinger 2001-2011
</metadata>
<g transform="translate(0.000000,108.000000) scale(0.100000,-0.100000)"
fill="#000000" stroke="none">
<path d="M176 961 c-3 -5 50 -91 119 -192 l125 -183 0 -186 c-1 -130 -4 -190
-13 -200 -14 -19 -61 -38 -100 -42 -15 -2 -29 -7 -30 -13 -3 -16 385 -13 390
3 3 8 -8 12 -35 12 -24 0 -52 9 -73 23 l-34 23 -3 189 -2 189 71 105 c40 58
96 141 126 183 29 42 53 82 53 87 0 14 -586 15 -594 2z m519 -71 c-20 -27 -34
-50 -32 -50 3 0 -3 -10 -14 -22 -10 -13 -42 -57 -71 -98 -84 -118 -130 -120
-208 -10 -25 36 -71 102 -103 148 l-57 82 261 0 261 0 -37 -50z m-205 -484 c0
-162 0 -164 -22 -168 l-23 -4 0 168 c0 168 0 168 23 168 22 0 22 -1 22 -164z
m-5 -194 c6 -4 20 -18 32 -32 l22 -25 -69 0 -69 0 22 25 c24 27 39 40 47 40 3
0 10 -4 15 -8z"/>
</g>
</svg>
