<?xml version="1.0" standalone="no"?>
<!DOCTYPE svg PUBLIC "-//W3C//DTD SVG 20010904//EN"
 "http://www.w3.org/TR/2001/REC-SVG-20010904/DTD/svg10.dtd">
<svg version="1.0" xmlns="http://www.w3.org/2000/svg"
 width="97.000000pt" height="97.000000pt" viewBox="0 0 97.000000 97.000000"
 preserveAspectRatio="xMidYMid meet">
<metadata>
Created by potrace 1.10, written by Peter Selinger 2001-2011
</metadata>
<g transform="translate(0.000000,97.000000) scale(0.100000,-0.100000)"
fill="#000000" stroke="none">
<path d="M335 928 c-3 -7 -4 -190 -3 -407 l3 -395 30 -9 c39 -11 191 -11 230
0 l30 9 0 405 0 404 -143 3 c-108 2 -144 0 -147 -10z m265 -260 c-1 -185 -4
-249 -14 -267 -8 -14 -13 -30 -12 -35 2 -6 1 -8 -1 -4 -3 5 -14 3 -25 -3 -11
-6 -41 -10 -66 -9 -26 0 -54 1 -62 1 -9 0 -16 8 -17 17 -1 9 -11 42 -22 72
-18 49 -20 78 -21 263 l0 207 120 0 120 0 0 -242z m-60 -460 l0 -78 -37 0
c-21 0 -54 3 -73 6 l-35 6 0 71 0 72 72 0 73 0 0 -77z"/>
</g>
</svg>
