<?xml version="1.0" standalone="no"?>
<!DOCTYPE svg PUBLIC "-//W3C//DTD SVG 20010904//EN"
 "http://www.w3.org/TR/2001/REC-SVG-20010904/DTD/svg10.dtd">
<svg version="1.0" xmlns="http://www.w3.org/2000/svg"
 width="76.000000pt" height="112.000000pt" viewBox="0 0 76.000000 112.000000"
 preserveAspectRatio="xMidYMid meet">
<metadata>
Created by potrace 1.10, written by Peter Selinger 2001-2011
</metadata>
<g transform="translate(0.000000,112.000000) scale(0.100000,-0.100000)"
fill="#000000" stroke="none">
<path d="M229 1034 c-30 -9 -39 -164 -15 -265 15 -67 62 -152 78 -143 6 4 8 3
5 -3 -4 -6 2 -31 13 -54 15 -34 20 -66 20 -139 0 -52 4 -101 9 -109 6 -10 1
-22 -15 -40 -13 -14 -24 -28 -24 -31 0 -3 -14 -7 -31 -8 -38 -3 -49 -9 -49
-26 0 -28 52 -41 164 -41 113 0 156 11 156 40 0 19 -11 24 -53 27 -19 2 -33 5
-31 7 2 3 -5 15 -17 27 -20 22 -21 31 -17 138 5 105 8 118 38 172 92 165 106
215 97 347 -3 49 -9 92 -12 96 -8 7 -292 12 -316 5z m297 -49 c13 -51 -1 -208
-23 -256 -24 -53 -58 -89 -85 -89 -11 0 -17 -4 -14 -9 4 -5 -18 -3 -46 5 -99
25 -134 112 -129 317 l1 57 145 0 145 0 6 -25z m-122 -560 c1 -131 1 -131 -21
-121 -20 10 -22 19 -25 126 -2 63 -2 119 0 123 2 5 13 7 25 5 20 -3 21 -9 21
-133z"/>
</g>
</svg>
